<svg width="109" height="21" viewBox="0 0 109 21" fill="none" xmlns="http://www.w3.org/2000/svg">
<path d="M0.0139943 0.53H2.32399V20H0.0139943V0.53ZM7.15755 0.53H10.595L17.195 15.7925H17.25L23.905 0.53H27.2601V20H24.95V3.665H24.895L17.91 20H16.5075L9.52255 3.665H9.46755V20H7.15755V0.53ZM32.1063 0.53H35.5438L42.1438 15.7925H42.1988L48.8538 0.53H52.2088V20H49.8988V3.665H49.8438L42.8588 20H41.4563L34.4713 3.665H34.4163V20H32.1063V0.53ZM66.1025 20.495C64.6175 20.495 63.2517 20.2383 62.005 19.725C60.7767 19.2117 59.7042 18.5058 58.7875 17.6075C57.8892 16.6908 57.1833 15.6092 56.67 14.3625C56.175 13.0975 55.9275 11.7317 55.9275 10.265C55.9275 8.79833 56.175 7.44167 56.67 6.195C57.1833 4.93 57.8892 3.84833 58.7875 2.95C59.7042 2.03333 60.7767 1.31833 62.005 0.805C63.2517 0.291666 64.6175 0.0349997 66.1025 0.0349997C67.5875 0.0349997 68.9442 0.291666 70.1725 0.805C71.4192 1.31833 72.4917 2.03333 73.39 2.95C74.3067 3.84833 75.0125 4.93 75.5075 6.195C76.0208 7.44167 76.2775 8.79833 76.2775 10.265C76.2775 11.7317 76.0208 13.0975 75.5075 14.3625C75.0125 15.6092 74.3067 16.6908 73.39 17.6075C72.4917 18.5058 71.4192 19.2117 70.1725 19.725C68.9442 20.2383 67.5875 20.495 66.1025 20.495ZM66.1025 18.35C67.2392 18.35 68.275 18.1392 69.21 17.7175C70.1633 17.2958 70.9792 16.7183 71.6575 15.985C72.3358 15.2517 72.8583 14.3992 73.225 13.4275C73.61 12.4375 73.8025 11.3833 73.8025 10.265C73.8025 9.14667 73.61 8.10167 73.225 7.13C72.8583 6.14 72.3358 5.27833 71.6575 4.545C70.9792 3.81167 70.1633 3.23417 69.21 2.8125C68.275 2.39083 67.2392 2.18 66.1025 2.18C64.9658 2.18 63.9208 2.39083 62.9675 2.8125C62.0325 3.23417 61.2258 3.81167 60.5475 4.545C59.8692 5.27833 59.3375 6.14 58.9525 7.13C58.5858 8.10167 58.4025 9.14667 58.4025 10.265C58.4025 11.3833 58.5858 12.4375 58.9525 13.4275C59.3375 14.3992 59.8692 15.2517 60.5475 15.985C61.2258 16.7183 62.0325 17.2958 62.9675 17.7175C63.9208 18.1392 64.9658 18.35 66.1025 18.35Z" fill="#0E1726"/>
<path d="M79.4946 0.53H83.7846V20H79.4946V0.53ZM108.999 20H97.2018C95.6801 20 94.2685 19.78 92.9668 19.34C91.6835 18.8817 90.5743 18.2217 89.6393 17.36C88.7043 16.4983 87.971 15.4533 87.4393 14.225C86.9076 12.9967 86.6418 11.5942 86.6418 10.0175C86.6418 8.55083 86.9076 7.20333 87.4393 5.975C87.9893 4.74667 88.7318 3.6925 89.6668 2.8125C90.6018 1.9325 91.7018 1.25417 92.9668 0.777498C94.2318 0.282499 95.5885 0.0349997 97.0368 0.0349997C98.4851 0.0349997 99.8418 0.282499 101.107 0.777498C102.372 1.2725 103.472 1.96 104.407 2.84C105.342 3.72 106.075 4.77417 106.607 6.0025C107.157 7.2125 107.432 8.55083 107.432 10.0175C107.432 10.7142 107.349 11.3925 107.184 12.0525C107.038 12.7125 106.808 13.3358 106.497 13.9225C106.185 14.5092 105.782 15.0408 105.287 15.5175C104.792 15.9758 104.214 16.3517 103.554 16.645V16.7H108.999V20ZM91.0968 10.0175C91.0968 10.8608 91.2526 11.6492 91.5643 12.3825C91.876 13.1158 92.2976 13.7575 92.8293 14.3075C93.3793 14.8392 94.0118 15.2608 94.7268 15.5725C95.4418 15.8842 96.2118 16.04 97.0368 16.04C97.8618 16.04 98.6318 15.8842 99.3468 15.5725C100.062 15.2608 100.685 14.8392 101.217 14.3075C101.767 13.7575 102.198 13.1158 102.509 12.3825C102.821 11.6492 102.977 10.8608 102.977 10.0175C102.977 9.17417 102.821 8.38583 102.509 7.6525C102.198 6.91917 101.767 6.28667 101.217 5.755C100.685 5.205 100.062 4.77417 99.3468 4.4625C98.6318 4.15083 97.8618 3.995 97.0368 3.995C96.2118 3.995 95.4418 4.15083 94.7268 4.4625C94.0118 4.77417 93.3793 5.205 92.8293 5.755C92.2976 6.28667 91.876 6.91917 91.5643 7.6525C91.2526 8.38583 91.0968 9.17417 91.0968 10.0175Z" fill="#12705B"/>
</svg>
 