<svg width="39" height="41" viewBox="0 0 39 41" fill="none" xmlns="http://www.w3.org/2000/svg">
<path d="M38.1944 11.9361C38.1944 11.4883 38.0217 11.0589 37.7141 10.7423C37.4066 10.4257 36.9895 10.2479 36.5546 10.2479C36.2793 10.2534 36.0099 10.3311 35.7718 10.4735L32.4803 6.79093C32.6069 6.55087 32.6741 6.28242 32.676 6.00929C32.6777 5.69828 32.5954 5.39289 32.4385 5.12714C32.2815 4.86139 32.056 4.64571 31.787 4.50412C31.518 4.36253 31.2161 4.30058 30.9149 4.32518C30.6138 4.34977 30.3251 4.45995 30.0812 4.64343L25.0441 2.367C25.0416 1.96643 24.9005 1.57989 24.646 1.2768C24.3916 0.973703 24.0406 0.773892 23.6559 0.713235C23.2713 0.652578 22.8783 0.735048 22.5474 0.94584C22.2165 1.15663 21.9694 1.48194 21.8505 1.86337H14.1638C14.0551 1.46864 13.8102 1.12836 13.475 0.906397C13.1398 0.68444 12.7374 0.59608 12.3434 0.65791C11.9494 0.719739 11.5909 0.927505 11.3352 1.2422C11.0794 1.55689 10.9441 1.95686 10.9545 2.367C10.9512 2.42873 10.9512 2.49061 10.9545 2.55234L7.30298 4.47421C7.17182 4.29131 7.00597 4.13771 6.81546 4.02272C6.62495 3.90773 6.41376 3.83373 6.19466 3.80522C5.97557 3.77671 5.75313 3.79426 5.54082 3.85683C5.32851 3.9194 5.13074 4.02567 4.95949 4.16922C4.78824 4.31277 4.64707 4.4906 4.54452 4.69195C4.44198 4.8933 4.3802 5.11399 4.36293 5.34063C4.34565 5.56728 4.37323 5.79518 4.44401 6.01054C4.51478 6.22589 4.62728 6.42422 4.77468 6.59351L1.95285 10.2801C1.54502 10.2023 1.12371 10.2869 0.774149 10.5167C0.424588 10.7465 0.172878 11.1045 0.0699422 11.5181C-0.0329931 11.9317 0.020532 12.3702 0.219688 12.7447C0.418844 13.1193 0.748763 13.402 1.1427 13.5356V18.2416C0.887243 18.3242 0.655468 18.4703 0.467812 18.667C0.280157 18.8636 0.142385 19.1048 0.0666457 19.3692C-0.00909369 19.6336 -0.020474 19.9131 0.0335096 20.1831C0.0874932 20.4531 0.205182 20.7053 0.376197 20.9174C0.547211 21.1295 0.766299 21.2951 1.01414 21.3994C1.26198 21.5038 1.53096 21.5438 1.79735 21.5159C2.06375 21.488 2.31938 21.393 2.5417 21.2393C2.76402 21.0857 2.94621 20.8781 3.07219 20.6348L6.86464 21.2352C6.91201 21.6327 7.09578 21.9998 7.38282 22.2702C7.66987 22.5406 8.0413 22.6965 8.43015 22.7098L10.1287 26.0942C9.88011 26.2017 9.66107 26.3706 9.491 26.586C9.32093 26.8015 9.20509 27.0567 9.15372 27.3292C9.10236 27.6017 9.11706 27.8831 9.19653 28.1483C9.27599 28.4136 9.41777 28.6546 9.60931 28.85C9.80085 29.0454 10.0362 29.1891 10.2946 29.2685C10.553 29.3479 10.8264 29.3604 11.0906 29.3051C11.3549 29.2497 11.6018 29.1281 11.8094 28.9511C12.0171 28.774 12.1792 28.547 12.2813 28.2901L18.0424 30.1112C18.0637 30.4479 18.183 30.7702 18.3848 31.0361C18.5865 31.302 18.8613 31.4992 19.1735 31.602L19.0874 37.0614C18.7132 37.1818 18.3933 37.4362 18.1856 37.7786C17.978 38.1209 17.8963 38.5285 17.9555 38.9274C18.0147 39.3264 18.2107 39.6904 18.5081 39.9533C18.8055 40.2163 19.1846 40.3609 19.5766 40.3609C19.9686 40.3609 20.3477 40.2163 20.6451 39.9533C20.9425 39.6904 21.1385 39.3264 21.1977 38.9274C21.2568 38.5285 21.1752 38.1209 20.9676 37.7786C20.7599 37.4362 20.44 37.1818 20.0658 37.0614L20.1597 31.602C20.4561 31.509 20.7206 31.3311 20.9224 31.0891C21.1242 30.8471 21.2549 30.5509 21.2992 30.2353C21.3435 29.9196 21.2997 29.5975 21.1727 29.3066C21.0458 29.0156 20.8411 28.7679 20.5824 28.5923L21.3926 26.1023L27.3337 28.1934C27.333 28.5534 27.4444 28.9041 27.6515 29.1941C27.8585 29.4841 28.1504 29.6983 28.4844 29.805V37.0574C28.1102 37.1778 27.7903 37.4322 27.5826 37.7745C27.375 38.1169 27.2933 38.5244 27.3525 38.9234C27.4116 39.3224 27.6077 39.6863 27.9051 39.9493C28.2025 40.2123 28.5815 40.3569 28.9736 40.3569C29.3656 40.3569 29.7447 40.2123 30.0421 39.9493C30.3395 39.6863 30.5355 39.3224 30.5947 38.9234C30.6538 38.5244 30.5722 38.1169 30.3645 37.7745C30.1569 37.4322 29.837 37.1778 29.4628 37.0574V29.805C29.6868 29.7354 29.8934 29.6165 30.0684 29.4567C30.2434 29.2968 30.3826 29.0997 30.4764 28.879C30.5701 28.6584 30.6163 28.4194 30.6116 28.1786C30.6068 27.9378 30.5514 27.7009 30.4491 27.4843L35.6935 23.008C35.9514 23.1754 36.2497 23.2648 36.5546 23.2658C36.9437 23.2632 37.3192 23.1179 37.6136 22.856C37.908 22.5941 38.1021 22.2327 38.161 21.8367C38.2199 21.4408 38.1398 21.0361 37.9351 20.6955C37.7303 20.3549 37.4143 20.1005 37.0438 19.9781V13.5316C37.3752 13.4256 37.6652 13.214 37.8721 12.9271C38.0789 12.6403 38.1918 12.2933 38.1944 11.9361ZM35.7014 20.1473L30.9148 16.0014L35.6113 13.3221C35.7463 13.4153 35.8941 13.4873 36.0497 13.5356V19.9821C35.9263 20.0225 35.808 20.078 35.6975 20.1473H35.7014ZM18.285 29.1362L12.3635 27.2627C12.2941 26.9672 12.1483 26.6966 11.9416 26.4796C11.7349 26.2625 11.4749 26.1071 11.1894 26.0298L9.38903 22.4238C9.54062 22.3131 9.67295 22.1769 9.78041 22.0208L17.3223 24.672L18.4964 28.826C18.4149 28.9209 18.344 29.025 18.285 29.1362ZM7.04076 20.244L3.2444 19.6437C3.20688 19.3227 3.08021 19.0197 2.87958 18.771C2.67896 18.5223 2.4129 18.3385 2.11331 18.2416V13.5356C2.36419 13.4542 2.59229 13.3117 2.77829 13.1202C2.96429 12.9288 3.1027 12.6939 3.18177 12.4357H7.04076L7.92919 19.4382C7.5457 19.5832 7.22878 19.8706 7.04076 20.244ZM6.07797 7.22607C6.17918 7.22497 6.28007 7.21418 6.37933 7.19384L6.91552 11.4324H3.18177C3.10881 11.189 2.983 10.9658 2.81388 10.7797L5.62789 7.15355C5.77384 7.19948 5.92537 7.22389 6.07797 7.22607ZM8.91155 19.406L8.02703 12.4357H12.6414C12.7426 12.7706 12.943 13.0645 13.2146 13.2762C13.4863 13.4879 13.8154 13.6068 14.156 13.6162L15.0601 16.7871L9.5808 19.7968C9.39116 19.6135 9.1617 19.4795 8.91155 19.406ZM23.4434 12.1536L18.4612 14.9176L15.8155 12.1657C15.8554 11.9321 15.8427 11.6921 15.7782 11.4644C15.7138 11.2366 15.5993 11.0272 15.4436 10.8522L18.6138 7.78611L23.4786 11.4566C23.4016 11.6857 23.384 11.9315 23.4278 12.1698L23.4434 12.1536ZM15.3575 13.1246L17.561 15.4132L15.9446 16.2915L15.0992 13.3301C15.1917 13.2706 15.2783 13.2018 15.3575 13.1246ZM14.8566 11.9159C14.8566 12.0506 14.8178 12.1822 14.7451 12.2942C14.6724 12.4062 14.5691 12.4935 14.4483 12.545C14.3274 12.5965 14.1944 12.61 14.0661 12.5838C13.9378 12.5575 13.82 12.4926 13.7274 12.3974C13.6349 12.3022 13.572 12.1808 13.5464 12.0488C13.5209 11.9167 13.534 11.7798 13.5841 11.6553C13.6341 11.5309 13.7189 11.4246 13.8277 11.3498C13.9365 11.2749 14.0643 11.235 14.1951 11.235C14.2847 11.2333 14.3736 11.2504 14.4565 11.2851C14.5394 11.3199 14.6146 11.3716 14.6776 11.4371C14.7405 11.5027 14.7899 11.5807 14.8227 11.6665C14.8554 11.7522 14.871 11.8439 14.8683 11.9361L14.8566 11.9159ZM10.1053 21.0861C10.1053 21.066 10.1053 21.0458 10.1053 21.0257C10.1054 20.9079 10.0936 20.7904 10.07 20.6751L15.338 17.7742L16.9818 23.5036L10.1053 21.0861ZM16.2225 17.2907L18.2772 16.1585L21.2321 19.2327C21.0876 19.6051 21.079 20.0188 21.2078 20.3973C21.3365 20.7757 21.594 21.0934 21.9327 21.2916L20.7586 24.8412L18.0972 23.9024L16.2225 17.2907ZM22.7546 20.514C22.6238 20.514 22.4959 20.474 22.3871 20.3992C22.2783 20.3244 22.1936 20.2181 22.1435 20.0936C22.0934 19.9692 22.0803 19.8323 22.1059 19.7002C22.1314 19.5681 22.1944 19.4468 22.2869 19.3516C22.3794 19.2564 22.4972 19.1915 22.6255 19.1652C22.7538 19.139 22.8868 19.1524 23.0077 19.204C23.1286 19.2555 23.2319 19.3428 23.3045 19.4548C23.3772 19.5667 23.416 19.6984 23.416 19.8331C23.417 19.9228 23.4008 20.0119 23.3683 20.0952C23.3358 20.1785 23.2876 20.2543 23.2265 20.3183C23.1653 20.3824 23.0925 20.4333 23.0122 20.4683C22.9319 20.5032 22.8457 20.5215 22.7585 20.522L22.7546 20.514ZM22.7546 18.1489C22.4297 18.1485 22.1121 18.2481 21.8427 18.435L19.1735 15.663L23.87 13.0682C24.1578 13.3908 24.5575 13.5835 24.9825 13.6047C25.4074 13.6258 25.8234 13.4736 26.14 13.1811L29.1849 15.812L24.007 18.7573C23.8542 18.5693 23.6632 18.4182 23.4475 18.3145C23.2318 18.2107 22.9966 18.157 22.7585 18.157L22.7546 18.1489ZM30.4765 7.58869C30.6865 7.67078 30.9113 7.70535 31.1355 7.69005C31.3597 7.67476 31.5781 7.60996 31.7758 7.50005L35.083 11.2068C34.984 11.4084 34.9273 11.6291 34.9165 11.8547C34.9057 12.0803 34.9411 12.3057 35.0204 12.5163L30.0929 15.3084L26.6488 12.3269C26.7393 11.9649 26.7047 11.5817 26.5509 11.2431L30.4765 7.58869ZM25.7173 11.9361C25.7173 12.0702 25.6788 12.2014 25.6066 12.3131C25.5344 12.4248 25.4318 12.512 25.3116 12.5639C25.1915 12.6158 25.0591 12.63 24.9311 12.6046C24.8031 12.5793 24.6853 12.5157 24.5923 12.4217C24.4994 12.3276 24.4355 12.2074 24.4086 12.0762C24.3818 11.9449 24.3932 11.8084 24.4415 11.6838C24.4898 11.5591 24.5727 11.452 24.6799 11.3757C24.7871 11.2995 24.9139 11.2575 25.0441 11.2552C25.132 11.2535 25.2193 11.27 25.3009 11.3035C25.3825 11.337 25.4568 11.3869 25.5195 11.4503C25.5821 11.5137 25.6319 11.5893 25.6659 11.6727C25.6998 11.7561 25.7173 11.8456 25.7173 11.9361ZM24.3827 19.6961L29.9794 16.5252L34.6133 20.5261L24.324 20.3206C24.3707 20.1679 24.3957 20.0092 24.3984 19.8492C24.3984 19.7928 24.3866 19.7444 24.3827 19.6961ZM36.5546 11.2552C36.6854 11.2552 36.8133 11.2951 36.922 11.3699C37.0308 11.4447 37.1156 11.5511 37.1656 11.6755C37.2157 11.7999 37.2288 11.9368 37.2033 12.0689C37.1778 12.201 37.1148 12.3223 37.0223 12.4175C36.9298 12.5128 36.8119 12.5776 36.6836 12.6039C36.5553 12.6302 36.4223 12.6167 36.3015 12.5651C36.1806 12.5136 36.0773 12.4263 36.0046 12.3144C35.9319 12.2024 35.8931 12.0707 35.8931 11.9361C35.8931 11.7555 35.9628 11.5823 36.0869 11.4546C36.2109 11.3269 36.3792 11.2552 36.5546 11.2552ZM31.0283 5.32435C31.1591 5.32435 31.287 5.36428 31.3958 5.4391C31.5046 5.51392 31.5893 5.62027 31.6394 5.74469C31.6895 5.86911 31.7026 6.00602 31.677 6.1381C31.6515 6.27018 31.5885 6.39151 31.496 6.48674C31.4035 6.58197 31.2857 6.64682 31.1574 6.67309C31.029 6.69937 30.8961 6.68588 30.7752 6.63434C30.6543 6.58281 30.551 6.49553 30.4784 6.38356C30.4057 6.27158 30.3669 6.13993 30.3669 6.00526C30.3669 5.82467 30.4366 5.65148 30.5606 5.52378C30.6847 5.39609 30.8529 5.32435 31.0283 5.32435ZM29.4628 5.47342C29.3756 5.72075 29.3486 5.9863 29.3841 6.24686C29.4195 6.50742 29.5164 6.75508 29.6663 6.96821L25.8778 10.4937C25.5936 10.3142 25.2621 10.2305 24.9295 10.2544C24.597 10.2782 24.2799 10.4083 24.0226 10.6266L19.3261 7.08505L22.6528 3.86179C22.8792 3.98193 23.13 4.04543 23.3847 4.04713C23.6484 4.04717 23.9081 3.98162 24.1418 3.85604C24.3756 3.73047 24.5764 3.5486 24.7271 3.32592L29.4628 5.47342ZM21.9601 3.16476L18.5355 6.47666L14.0856 3.11641C14.1231 3.03717 14.1545 2.95499 14.1795 2.87064H21.8388C21.8699 2.97246 21.9106 3.07095 21.9601 3.16476ZM23.3925 1.68609C23.5233 1.68609 23.6512 1.72602 23.76 1.80084C23.8688 1.87566 23.9535 1.98201 24.0036 2.10643C24.0537 2.23085 24.0668 2.36776 24.0413 2.49984C24.0157 2.63193 23.9527 2.75325 23.8602 2.84848C23.7677 2.94371 23.6499 3.00856 23.5216 3.03483C23.3933 3.06111 23.2603 3.04762 23.1394 2.99609C23.0186 2.94455 22.9153 2.85728 22.8426 2.7453C22.7699 2.63332 22.7311 2.50168 22.7311 2.367C22.7311 2.27724 22.7483 2.18837 22.7818 2.10549C22.8153 2.02262 22.8644 1.94738 22.9262 1.88409C22.988 1.82081 23.0614 1.77074 23.1421 1.73676C23.2228 1.70278 23.3093 1.68556 23.3964 1.68609H23.3925ZM12.6062 1.68609C12.737 1.68609 12.8649 1.72602 12.9736 1.80084C13.0824 1.87566 13.1672 1.98201 13.2172 2.10643C13.2673 2.23085 13.2804 2.36776 13.2549 2.49984C13.2294 2.63193 13.1664 2.75325 13.0739 2.84848C12.9814 2.94371 12.8635 3.00856 12.7352 3.03483C12.6069 3.06111 12.4739 3.04762 12.353 2.99609C12.2322 2.94455 12.1289 2.85728 12.0562 2.7453C11.9835 2.63332 11.9447 2.50168 11.9447 2.367C11.9447 2.18641 12.0144 2.01322 12.1385 1.88552C12.2625 1.75783 12.4307 1.68609 12.6062 1.68609ZM11.3811 3.475C11.6213 3.76556 11.9519 3.96133 12.3166 4.02893C12.6814 4.09653 13.0576 4.03176 13.3811 3.84568L17.8115 7.18175L14.5865 10.3003C14.1813 10.1892 13.7501 10.2454 13.3845 10.4569C13.019 10.6683 12.7481 11.0184 12.6296 11.4324H7.90179L7.29516 6.65797C7.56601 6.35143 7.71664 5.95227 7.71784 5.53789C7.71784 5.49357 7.71784 5.45328 7.71784 5.41299L11.3811 3.475ZM6.07797 4.861C6.20879 4.861 6.33667 4.90094 6.44544 4.97576C6.55421 5.05058 6.63899 5.15692 6.68905 5.28134C6.73911 5.40576 6.75221 5.54267 6.72669 5.67476C6.70117 5.80684 6.63817 5.92817 6.54567 6.0234C6.45317 6.11862 6.33531 6.18348 6.20701 6.20975C6.0787 6.23602 5.94571 6.22254 5.82485 6.171C5.70399 6.11946 5.60069 6.03219 5.52801 5.92021C5.45533 5.80824 5.41654 5.67659 5.41654 5.54192C5.41654 5.36133 5.48623 5.18813 5.61027 5.06044C5.73431 4.93274 5.90255 4.861 6.07797 4.861ZM1.62409 11.2552C1.75491 11.2552 1.88279 11.2951 1.99156 11.3699C2.10033 11.4447 2.18511 11.5511 2.23517 11.6755C2.28523 11.7999 2.29833 11.9368 2.27281 12.0689C2.24729 12.201 2.18429 12.3223 2.09179 12.4175C1.99929 12.5128 1.88143 12.5776 1.75313 12.6039C1.62483 12.6302 1.49183 12.6167 1.37097 12.5651C1.25011 12.5136 1.14681 12.4263 1.07413 12.3144C1.00145 12.2024 0.962662 12.0707 0.962662 11.9361C0.962662 11.7555 1.03235 11.5823 1.15639 11.4546C1.28043 11.3269 1.44867 11.2552 1.62409 11.2552ZM1.62409 20.522C1.49327 20.522 1.36539 20.4821 1.25662 20.4073C1.14785 20.3325 1.06307 20.2261 1.01301 20.1017C0.962949 19.9773 0.949849 19.8404 0.975371 19.7083C1.00089 19.5762 1.06389 19.4549 1.15639 19.3596C1.24889 19.2644 1.36675 19.1996 1.49505 19.1733C1.62336 19.147 1.75635 19.1605 1.87721 19.212C1.99807 19.2636 2.10137 19.3508 2.17405 19.4628C2.24673 19.5748 2.28552 19.7064 2.28552 19.8411C2.28552 20.0217 2.21583 20.1949 2.09179 20.3226C1.96775 20.4503 1.79951 20.522 1.62409 20.522ZM7.82352 21.0257C7.82352 20.891 7.86231 20.7593 7.93499 20.6474C8.00767 20.5354 8.11097 20.4481 8.23183 20.3966C8.35269 20.345 8.48568 20.3316 8.61398 20.3578C8.74229 20.3841 8.86014 20.449 8.95265 20.5442C9.04515 20.6394 9.10814 20.7607 9.13366 20.8928C9.15919 21.0249 9.14609 21.1618 9.09603 21.2862C9.04596 21.4107 8.96119 21.517 8.85242 21.5918C8.74364 21.6666 8.61576 21.7066 8.48494 21.7066C8.30952 21.7066 8.14129 21.6348 8.01725 21.5071C7.8932 21.3794 7.82352 21.2063 7.82352 21.0257ZM10.7823 28.3304C10.6515 28.3304 10.5236 28.2905 10.4149 28.2156C10.3061 28.1408 10.2213 28.0345 10.1713 27.91C10.1212 27.7856 10.1081 27.6487 10.1336 27.5166C10.1591 27.3846 10.2221 27.2632 10.3146 27.168C10.4071 27.0728 10.525 27.0079 10.6533 26.9816C10.7816 26.9554 10.9146 26.9689 11.0355 27.0204C11.1563 27.0719 11.2596 27.1592 11.3323 27.2712C11.405 27.3832 11.4438 27.5148 11.4438 27.6495C11.4438 27.7396 11.4264 27.8288 11.3927 27.9119C11.3589 27.9951 11.3095 28.0705 11.2473 28.1338C11.185 28.1972 11.1112 28.2471 11.03 28.2809C10.9489 28.3146 10.862 28.3315 10.7745 28.3304H10.7823ZM19.5649 39.358C19.434 39.358 19.3062 39.318 19.1974 39.2432C19.0886 39.1684 19.0038 39.0621 18.9538 38.9376C18.9037 38.8132 18.8906 38.6763 18.9161 38.5442C18.9417 38.4121 19.0047 38.2908 19.0972 38.1956C19.1897 38.1004 19.3075 38.0355 19.4358 38.0092C19.5641 37.983 19.6971 37.9964 19.818 38.048C19.9388 38.0995 20.0421 38.1868 20.1148 38.2988C20.1875 38.4107 20.2263 38.5424 20.2263 38.6771C20.2263 38.8577 20.1566 39.0308 20.0326 39.1585C19.9085 39.2862 19.7403 39.358 19.5649 39.358ZM19.6627 30.6955C19.533 30.6907 19.4075 30.6468 19.3018 30.5691C19.1962 30.4915 19.1151 30.3836 19.0686 30.2588C19.0221 30.134 19.0123 29.998 19.0405 29.8675C19.0686 29.7371 19.1333 29.618 19.2267 29.5252C19.3201 29.4323 19.4379 29.3699 19.5655 29.3455C19.6932 29.3211 19.8249 29.3359 19.9444 29.3881C20.0639 29.4403 20.1659 29.5275 20.2376 29.6389C20.3093 29.7503 20.3475 29.8809 20.3476 30.0145C20.3476 30.1046 20.3302 30.1938 20.2965 30.277C20.2628 30.3601 20.2134 30.4356 20.1511 30.4989C20.0889 30.5622 20.015 30.6122 19.9339 30.646C19.8527 30.6797 19.7659 30.6965 19.6784 30.6955H19.6627ZM19.6236 28.3304C19.5382 28.3329 19.4531 28.3424 19.3692 28.3586L18.4338 25.087L20.4494 25.7961L19.6236 28.3304ZM22.8916 21.5293C23.1255 21.51 23.3525 21.4385 23.5569 21.3198L34.9069 21.5535C34.9069 21.5535 34.9069 21.5817 34.9069 21.5938C34.9074 21.824 34.954 22.0517 35.0438 22.2626L29.7837 26.747C29.538 26.5984 29.2585 26.5192 28.9736 26.5173C28.7076 26.5173 28.4456 26.5841 28.2103 26.7119C27.975 26.8396 27.7735 27.0246 27.6233 27.2506L21.7018 25.1555L22.8916 21.5293ZM28.9579 39.358C28.8271 39.358 28.6992 39.318 28.5905 39.2432C28.4817 39.1684 28.3969 39.0621 28.3468 38.9376C28.2968 38.8132 28.2837 38.6763 28.3092 38.5442C28.3347 38.4121 28.3977 38.2908 28.4902 38.1956C28.5827 38.1004 28.7006 38.0355 28.8289 38.0092C28.9572 37.983 29.0902 37.9964 29.211 38.048C29.3319 38.0995 29.4352 38.1868 29.5079 38.2988C29.5806 38.4107 29.6194 38.5424 29.6194 38.6771C29.6194 38.8577 29.5497 39.0308 29.4256 39.1585C29.3016 39.2862 29.1333 39.358 28.9579 39.358ZM28.9579 28.8824C28.8271 28.8824 28.6992 28.8424 28.5905 28.7676C28.4817 28.6928 28.3969 28.5865 28.3468 28.462C28.2968 28.3376 28.2837 28.2007 28.3092 28.0686C28.3347 27.9365 28.3977 27.8152 28.4902 27.72C28.5827 27.6248 28.7006 27.5599 28.8289 27.5336C28.9572 27.5074 29.0902 27.5208 29.211 27.5724C29.3319 27.6239 29.4352 27.7112 29.5079 27.8232C29.5806 27.9351 29.6194 28.0668 29.6194 28.2015C29.6194 28.382 29.5497 28.5552 29.4256 28.6829C29.3016 28.8106 29.1333 28.8824 28.9579 28.8824ZM36.5428 22.2586C36.412 22.2586 36.2841 22.2186 36.1754 22.1438C36.0666 22.069 35.9818 21.9626 35.9317 21.8382C35.8817 21.7138 35.8686 21.5769 35.8941 21.4448C35.9196 21.3127 35.9826 21.1914 36.0751 21.0962C36.1676 21.0009 36.2855 20.9361 36.4138 20.9098C36.5421 20.8835 36.6751 20.897 36.7959 20.9486C36.9168 21.0001 37.0201 21.0874 37.0928 21.1994C37.1655 21.3113 37.2043 21.443 37.2043 21.5777C37.2043 21.7562 37.1362 21.9276 37.0147 22.0549C36.8932 22.1823 36.728 22.2554 36.5546 22.2586H36.5428Z" fill="#12705B"/>
</svg>
